<svg width="10" height="16" viewBox="0 0 10 16" fill="none" xmlns="http://www.w3.org/2000/svg">
<path d="M1.04341 13.4406L1.03135 13.4546L1.02035 13.4694C0.683125 13.9239 0.720097 14.5681 1.13224 14.9803C1.58524 15.4333 2.31972 15.4333 2.77272 14.9803L8.93272 8.82025L8.94568 8.8073L8.95765 8.79343L9.02155 8.71941L9.03362 8.70543L9.04462 8.69061C9.38184 8.23612 9.34486 7.5919 8.93272 7.17976L2.77272 1.01976L2.75977 1.00681L2.74591 0.99484L2.67188 0.930935L2.65791 0.918871L2.64308 0.907869C2.1886 0.57065 1.54438 0.607621 1.13224 1.01976L1.11928 1.03271L1.10731 1.04658L1.04341 1.1206L1.03135 1.13458L1.02035 1.1494C0.683128 1.60389 0.720096 2.2481 1.13223 2.66024C1.13223 2.66024 1.13223 2.66024 1.13224 2.66025L6.47171 8.00001L1.13223 13.3398L1.11928 13.3527L1.10731 13.3666L1.04341 13.4406Z" fill="#ED4040" stroke="#ED4040"/>
</svg>
