<svg width="44" height="44" viewBox="0 0 44 44" fill="none" xmlns="http://www.w3.org/2000/svg">
<circle cx="22" cy="22" r="22" fill="#717171"/>
<path d="M24.8405 26.3168C24.7616 26.2215 24.644 26.1666 24.5203 26.1666H19.4796C19.3559 26.1666 19.2383 26.2215 19.1593 26.3168C19.08 26.412 19.0474 26.5373 19.0698 26.659C19.6688 29.9036 20.8191 32 21.9999 32C23.1807 32 24.3311 29.9036 24.93 26.659C24.9524 26.5373 24.9198 26.412 24.8405 26.3168Z" fill="white"/>
<path d="M31.5247 18.9564C31.4698 18.7838 31.3095 18.6666 31.128 18.6666H26.436C26.3185 18.6666 26.2061 18.7163 26.1272 18.8037C26.0479 18.8912 26.0096 19.008 26.0214 19.1252C26.1179 20.0822 26.1667 21.0498 26.1667 21.9999C26.1667 22.9501 26.1179 23.9177 26.0214 24.8747C26.0096 24.9919 26.0479 25.1087 26.1272 25.1961C26.2061 25.2836 26.3185 25.3333 26.436 25.3333H31.128C31.3095 25.3333 31.4698 25.2161 31.5248 25.0435C31.8401 24.056 32 23.0323 32 22C32 20.9677 31.8401 19.9439 31.5247 18.9564Z" fill="white"/>
<path d="M25.8004 17.486C25.8342 17.6865 26.0079 17.8335 26.2113 17.8335H30.4171C30.564 17.8335 30.7003 17.7557 30.7756 17.6296C30.8505 17.503 30.8533 17.3464 30.7829 17.2174C29.5321 14.9253 27.3832 13.1793 24.8865 12.4274C24.7257 12.3777 24.5487 12.4326 24.4417 12.5649C24.3355 12.6976 24.3201 12.8811 24.4027 13.0292C25.0097 14.1172 25.4931 15.6581 25.8004 17.486Z" fill="white"/>
<path d="M24.7625 18.6667H19.2375C19.0247 18.6667 18.8461 18.8271 18.8233 19.0387C18.7196 20.0006 18.6667 20.9971 18.6667 22.0001C18.6667 23.0032 18.7196 23.9997 18.8233 24.9616C18.8461 25.1732 19.0247 25.3335 19.2375 25.3335H24.7625C24.9753 25.3335 25.1539 25.1732 25.1767 24.9616C25.2804 23.9997 25.3333 23.0032 25.3333 22.0001C25.3333 20.9971 25.2804 20.0006 25.1767 19.0387C25.1539 18.8271 24.9753 18.6667 24.7625 18.6667Z" fill="white"/>
<path d="M13.5828 17.8333H17.7885C17.9919 17.8333 18.1657 17.6864 18.1995 17.4858C18.5067 15.658 18.9901 14.1171 19.5972 13.029C19.6798 12.8809 19.6643 12.6974 19.5581 12.5648C19.4515 12.4329 19.2753 12.3772 19.1134 12.4272C16.6166 13.1792 14.4678 14.9252 13.2169 17.2173C13.1466 17.3463 13.1494 17.503 13.2243 17.6295C13.2996 17.7556 13.4359 17.8333 13.5828 17.8333Z" fill="white"/>
<path d="M17.8728 25.1963C17.9521 25.1088 17.9904 24.992 17.9786 24.8748C17.8821 23.9178 17.8333 22.9502 17.8333 22.0001C17.8333 21.05 17.8821 20.0823 17.9786 19.1253C17.9904 19.0081 17.9521 18.8913 17.8728 18.8039C17.7939 18.7164 17.6816 18.6667 17.564 18.6667H12.872C12.6905 18.6667 12.5302 18.7839 12.4753 18.9565C12.1599 19.944 12 20.9678 12 22.0001C12 23.0324 12.1599 24.0561 12.4753 25.0437C12.5302 25.2163 12.6905 25.3334 12.872 25.3334H17.564C17.6816 25.3334 17.7939 25.2838 17.8728 25.1963Z" fill="white"/>
<path d="M18.1994 26.5141C18.1657 26.3135 17.9919 26.1666 17.7885 26.1666H13.5828C13.4359 26.1666 13.2996 26.2444 13.2243 26.3705C13.1494 26.4971 13.1466 26.6537 13.2169 26.7827C14.4678 29.0748 16.6166 30.8208 19.1134 31.5727C19.1528 31.5849 19.1931 31.5906 19.2334 31.5906C19.3575 31.5906 19.4775 31.5349 19.5581 31.4352C19.6643 31.3025 19.6798 31.119 19.5972 30.9709C18.9901 29.8828 18.5067 28.3419 18.1994 26.5141Z" fill="white"/>
<path d="M30.4171 26.1666H26.2113C26.0079 26.1666 25.8342 26.3135 25.8004 26.5141C25.4931 28.3419 25.0097 29.8829 24.4027 30.9709C24.3201 31.119 24.3355 31.3026 24.4417 31.4352C24.5223 31.5349 24.6423 31.5906 24.7665 31.5906C24.8063 31.5906 24.847 31.5849 24.8865 31.5727C27.3833 30.8208 29.5321 29.0748 30.7829 26.7827C30.8533 26.6537 30.8505 26.497 30.7756 26.3705C30.7003 26.2443 30.564 26.1666 30.4171 26.1666Z" fill="white"/>
<path d="M19.1595 17.6832C19.2384 17.7784 19.356 17.8334 19.4797 17.8334H24.5204C24.6441 17.8334 24.7617 17.7784 24.8407 17.6832C24.92 17.588 24.9526 17.4627 24.9302 17.341C24.3312 14.0964 23.1809 12 22.0001 12C20.8192 12 19.6689 14.0964 19.07 17.341C19.0476 17.4627 19.0801 17.588 19.1595 17.6832Z" fill="white"/>
</svg>
