<svg width="18" height="17" viewBox="0 0 18 17" fill="none" xmlns="http://www.w3.org/2000/svg">
<path d="M8.53368 4.05539L9 5.26088L9.46632 4.05539C10.0587 2.52416 11.7427 1.375 13.5 1.375C15.7687 1.375 17.5 3.08497 17.5 5.375C17.5 6.94572 16.6613 8.39043 15.0808 10.1483C14.1493 11.1844 13.009 12.2799 11.6943 13.5429C10.863 14.3416 9.96195 15.2073 9 16.1671C8.03805 15.2073 7.13702 14.3416 6.30568 13.5429C4.99104 12.2799 3.85066 11.1844 2.91919 10.1483C1.3387 8.39043 0.5 6.94572 0.5 5.375C0.5 3.08497 2.23131 1.375 4.5 1.375C6.25546 1.375 7.94138 2.52426 8.53368 4.05539Z" stroke="#ED4040"/>
</svg>
