<svg width="13" height="13" viewBox="0 0 13 13" fill="none" xmlns="http://www.w3.org/2000/svg">
<path d="M10.1991 8.075C10.0372 8.23188 9.9628 8.45875 9.99968 8.68125L10.5553 11.7563C10.6022 12.0169 10.4922 12.2806 10.2741 12.4313C10.0603 12.5875 9.77593 12.6063 9.5428 12.4813L6.77468 11.0375C6.67843 10.9863 6.57155 10.9588 6.46218 10.9556H6.2928C6.23405 10.9644 6.17655 10.9831 6.12405 11.0119L3.3553 12.4625C3.21843 12.5313 3.06343 12.5556 2.91155 12.5313C2.54155 12.4613 2.29468 12.1088 2.3553 11.7369L2.91155 8.66188C2.94843 8.4375 2.87405 8.20938 2.71218 8.05L0.455303 5.8625C0.266553 5.67938 0.200928 5.40438 0.287178 5.15625C0.370928 4.90875 0.584678 4.72813 0.842803 4.6875L3.94905 4.23688C4.1853 4.2125 4.3928 4.06875 4.49905 3.85625L5.8678 1.05C5.9003 0.9875 5.94218 0.93 5.9928 0.88125L6.04905 0.8375C6.07843 0.805 6.11218 0.778125 6.14968 0.75625L6.2178 0.73125L6.32405 0.6875H6.58718C6.82218 0.711875 7.02905 0.8525 7.13718 1.0625L8.52405 3.85625C8.62405 4.06063 8.81843 4.2025 9.0428 4.23688L12.1491 4.6875C12.4116 4.725 12.6309 4.90625 12.7178 5.15625C12.7997 5.40688 12.7291 5.68188 12.5366 5.8625L10.1991 8.075Z" fill="#ED4040"/>
</svg>
