<svg width="30" height="30" viewBox="0 0 30 30" fill="none" xmlns="http://www.w3.org/2000/svg">
<g clip-path="url(#clip0_166_852)">
<path d="M24.8938 16.2851C24.4088 15.6726 24.5475 15.4001 24.8938 14.8526C24.9 14.8464 28.9037 9.31387 29.3162 7.43762L29.3188 7.43637C29.5238 6.75262 29.3188 6.25012 28.3275 6.25012H25.0475C24.2125 6.25012 23.8275 6.68137 23.6213 7.16387C23.6213 7.16387 21.9513 11.1614 19.5887 13.7526C18.8263 14.5014 18.4738 14.7414 18.0575 14.7414C17.8525 14.7414 17.5338 14.5014 17.5338 13.8176V7.43637C17.5338 6.61637 17.3 6.25012 16.6087 6.25012H11.4513C10.9275 6.25012 10.6163 6.63262 10.6163 6.98887C10.6163 7.76637 11.7975 7.94512 11.92 10.1326V14.8789C11.92 15.9189 11.7312 16.1101 11.3125 16.1101C10.1975 16.1101 7.49125 12.0964 5.8875 7.50262C5.56375 6.61137 5.2475 6.25137 4.40625 6.25137H1.125C0.18875 6.25137 0 6.68262 0 7.16512C0 8.01762 1.115 12.2564 5.185 17.8564C7.8975 21.6789 11.7175 23.7501 15.1925 23.7501C17.2812 23.7501 17.5363 23.2901 17.5363 22.4989C17.5363 18.8464 17.3475 18.5014 18.3937 18.5014C18.8787 18.5014 19.7137 18.7414 21.6637 20.5851C23.8925 22.7714 24.2588 23.7501 25.5063 23.7501H28.7862C29.7212 23.7501 30.195 23.2901 29.9225 22.3826C29.2987 20.4739 25.0838 16.5476 24.8938 16.2851Z" fill="#717171"/>
</g>
<defs>
<clipPath id="clip0_166_852">
<rect width="30" height="30" fill="white"/>
</clipPath>
</defs>
</svg>
